# Blender 4.0.2
# www.blender.org
mtllib peach2.mtl
o gummi_peach
v 4.626932 4.903863 -1.591970
v 4.626932 -0.886851 -2.872391
v 2.337961 3.400134 5.208657
v 2.337962 -2.390581 3.928236
v -2.337961 5.398055 -3.826957
v -2.337961 -0.392660 -5.107378
v -4.626933 3.894326 2.973671
v -4.626932 -1.896389 1.693250
v -4.265109 -1.840920 -2.124478
v 1.401703 -1.222707 -4.920351
v 5.666812 2.190556 -2.730063
v -5.666812 0.954130 2.861683
v 2.863406 0.348872 5.598971
v -2.863406 2.795815 -5.467351
v 4.265109 4.607445 2.172480
v -4.265109 5.212703 -0.564808
v 1.401703 5.830916 -3.360681
v 4.265109 -2.446178 0.612810
v -0.000000 3.172657 0.419665
v -6.031775 1.869030 -1.898776
v 6.031775 1.013065 1.972333
v 1.982307 2.743315 -5.852737
v -3.306314 -1.113179 -4.027325
v -4.688622 -2.021280 0.079569
v 3.416790 -1.137031 -3.919453
v -0.789302 -0.838589 -5.269159
v 5.311213 3.921616 -2.163275
v 5.311213 0.342754 -2.954620
v -5.311213 -0.816085 2.286238
v -5.311213 2.762777 3.077583
v 2.683724 2.195500 5.643102
v 2.683724 -1.383363 4.851758
v -2.683724 4.488894 -4.728795
v -2.683724 0.910032 -5.520140
v 0.789302 3.748363 5.348836
v -3.416791 4.046804 3.999130
v 4.688622 4.931053 0.000108
v 3.306315 4.022953 4.107001
v -3.416791 -2.564706 2.537218
v 0.789303 -2.863148 3.886925
v -4.688622 4.590230 1.541481
v -3.306314 5.498331 -2.565412
v -0.789302 5.772921 -3.807247
v 3.416790 5.474479 -2.457541
v 3.306315 -2.588558 2.645089
v 4.688622 -1.680457 -1.461804
v 0.698068 5.125012 -1.324030
v -2.074416 4.822552 0.043850
v 2.098988 4.526430 1.383066
v 0.522496 0.115572 6.224161
v -4.174284 0.448831 4.716997
v -6.327626 1.368907 0.555944
v -5.555841 3.853549 -1.299776
v -4.784057 2.382947 -4.030064
v -5.555841 -0.181197 -2.191924
v 0.771785 -3.328072 -3.422865
v 2.348390 -4.001721 -0.376279
v -2.348390 -3.668463 -1.883444
v 6.327626 1.594522 -0.464403
v 5.555841 3.065124 2.265886
v 4.784057 0.580481 4.121605
v 5.555841 -0.969622 1.373738
v -0.522496 2.847857 -6.132620
v 1.825894 4.658849 -4.941753
v 4.174284 2.514598 -4.625455
v 1.825894 0.624103 -5.833901
v 2.652509 5.302290 -0.514038
v -1.321803 5.584286 -1.789367
v -2.627937 4.726228 2.091211
v 1.346375 4.444232 3.366540
v 0.548406 -1.707775 5.353418
v 0.548406 2.126496 6.201237
v -3.924314 2.443857 4.765973
v -3.924314 -1.390415 3.918153
v -5.871083 -0.558603 0.156276
v -5.871083 3.275669 1.004095
v -4.401150 4.241335 -3.363137
v -4.401150 0.407063 -4.210956
v -1.501394 -2.434459 -3.863256
v 2.971327 -2.751819 -2.427991
v 1.501394 -3.717484 1.939241
v -2.971327 -3.400124 0.503976
v 5.871083 -0.321800 -0.914668
v 5.871083 3.512472 -0.066848
v 4.401150 2.546807 4.300384
v 4.401150 -1.287466 3.452564
v -0.548406 0.827372 -6.111810
v -0.548406 4.661644 -5.263990
v 3.924314 4.344285 -3.828726
v 3.924314 0.510013 -4.676546
v -1.552223 3.993532 4.895956
v -1.238042 3.971240 4.996774
v -1.551318 -3.027291 3.343978
v -1.239026 -3.049449 3.444191
v -1.982300 0.096529 5.612474
v -1.815594 0.137235 5.946120
v -0.017335 -4.800732 -1.289358
v -1.841742 2.010176 5.596222
v -1.659682 2.250491 5.928401
v -1.664965 -1.643230 4.847951
v -1.972584 -1.748043 4.938990
v -0.887730 -3.921557 1.332388
v -0.616566 -4.299461 1.216136
v -1.282465 3.555746 4.809624
v -1.461274 3.568433 4.752245
v -1.972794 2.272707 5.827925
v -1.664600 1.997607 5.653066
v -2.128199 0.159416 5.845807
v -1.805950 0.084017 5.669064
v -1.283977 -2.801546 3.403549
v -1.659919 -1.770229 5.039322
v -1.841410 -1.630710 4.791332
v -1.459839 -2.789067 3.347116
v -0.921974 -4.277791 1.118132
v -0.722612 -3.933273 1.385373
vn 0.5726 0.8114 -0.1169
vn 0.3246 0.9311 -0.1663
vn -0.0864 0.9625 0.2573
vn 0.4842 0.8630 0.1445
vn 0.1339 0.9700 -0.2028
vn -0.0625 0.9155 0.3974
vn -0.0288 0.9534 0.3004
vn -0.2556 0.9486 0.1868
vn 0.4075 0.8532 0.3255
vn -0.0458 0.9574 -0.2851
vn 0.0438 0.9532 0.2990
vn -0.2894 0.8726 -0.3935
vn -0.3629 0.9231 -0.1274
vn -0.4073 0.9110 0.0641
vn 0.2191 0.9149 0.3391
vn -0.4848 0.8430 0.2330
vn 0.1660 0.9659 0.1987
vn -0.5711 0.6880 0.4477
vn -0.2466 0.8070 0.5367
vn -0.5286 -0.8445 0.0858
vn 0.2746 -0.8807 0.3859
vn 0.2701 -0.7738 0.5730
vn -0.5213 -0.7814 0.3432
vn -0.1250 0.9866 0.1053
vn 0.3633 0.7829 0.5052
vn 0.2499 0.2015 0.9471
vn 0.4754 0.6420 0.6015
vn -0.5800 0.2728 0.7676
vn -0.0090 0.7901 0.6129
vn 0.2886 0.6270 0.7236
vn 0.3496 -0.7663 0.5391
vn 0.4166 -0.5521 0.7222
vn 0.0777 -0.6057 0.7919
vn 0.1208 -0.8269 0.5492
vn 0.4510 -0.1860 0.8729
vn 0.0728 -0.2159 0.9737
vn 0.1493 -0.7595 -0.6331
vn 0.5269 -0.7306 -0.4342
vn 0.4563 -0.8888 -0.0438
vn -0.0037 -0.9788 -0.2047
vn 0.1966 -0.5802 0.7904
vn -0.5988 -0.5577 0.5748
vn 0.4119 0.2215 0.8839
vn 0.0573 0.2275 0.9721
vn -0.6489 0.7218 0.2407
vn 0.1835 -0.2051 0.9614
vn -0.6502 -0.1646 0.7417
vn -0.8152 0.3086 0.4901
vn -0.8925 -0.0907 0.4418
vn -0.5574 -0.8217 0.1190
vn 0.2677 -0.9010 0.3413
vn -0.6485 -0.7086 0.2782
vn -0.7309 -0.1402 0.6680
vn -0.6904 -0.5172 0.5058
vn -0.8244 -0.4641 0.3240
vn -0.6918 -0.6924 0.2049
vn -0.9040 -0.4273 -0.0149
vn -0.7154 -0.6980 -0.0310
vn -0.9973 -0.0163 0.0710
vn -0.9500 0.0652 -0.3053
vn -0.8491 -0.3777 -0.3693
vn -0.6583 -0.6573 -0.3669
vn -0.8999 0.4097 0.1493
vn -0.8453 0.5056 -0.1727
vn -0.6905 0.5473 -0.4730
vn -0.7597 0.1398 -0.6350
vn -0.4119 0.5735 -0.7081
vn -0.4510 0.1994 -0.8700
vn -0.6817 -0.2813 -0.6754
vn -0.5045 -0.5594 -0.6577
vn -0.4166 -0.1961 -0.8877
vn -0.3496 -0.4676 -0.8119
vn -0.1204 -0.5175 -0.8471
vn -0.2662 -0.6744 -0.6887
vn 0.2163 -0.5619 -0.7984
vn -0.4558 -0.8240 -0.3365
vn 0.5214 -0.5631 -0.6412
vn 0.6918 -0.5415 -0.4777
vn 0.7154 -0.6460 -0.2662
vn 0.6583 -0.7507 0.0556
vn 0.5045 -0.7846 0.3605
vn -0.7239 0.2706 0.6346
vn 0.8244 -0.2842 -0.4895
vn 0.9040 -0.3938 -0.1666
vn 0.8925 0.1041 -0.4389
vn 0.9973 0.0152 -0.0712
vn 0.9500 -0.0696 0.3044
vn 0.8491 -0.4982 0.1756
vn 0.8152 0.4865 -0.3143
vn 0.8999 0.4345 0.0374
vn 0.8453 0.3857 0.3698
vn 0.6905 0.2969 0.6596
vn 0.7597 -0.1409 0.6348
vn 0.6817 -0.5398 0.4939
vn -0.0777 -0.2154 -0.9734
vn -0.0728 0.2148 -0.9739
vn 0.3122 0.2029 -0.9281
vn 0.2790 -0.2547 -0.9259
vn -0.0573 0.6164 -0.7854
vn 0.2778 0.6282 -0.7268
vn 0.5800 0.5711 -0.5809
vn 0.6502 0.1635 -0.7419
vn 0.5988 -0.2634 -0.7564
vn -0.8018 0.5945 0.0597
vn 0.6871 0.4889 0.5375
vn 0.4337 0.1444 0.8894
vn -0.8458 0.2352 0.4789
vn 0.3736 -0.2147 0.9024
vn -0.8509 -0.1279 0.5095
vn -0.7469 -0.6255 0.2255
vn -0.8146 -0.4450 0.3720
vn 0.3833 -0.5300 0.7564
vn 0.3906 -0.7062 0.5905
vn 0.4366 -0.7607 0.4803
vn -0.7271 -0.6782 0.1068
vt 0.625000 0.500000
vt 0.687500 0.500000
vt 0.687500 0.562500
vt 0.625000 0.562500
vt 0.750000 0.500000
vt 0.750000 0.562500
vt 0.750000 0.625000
vt 0.687500 0.625000
vt 0.625000 0.625000
vt 0.812500 0.500000
vt 0.812500 0.562500
vt 0.875000 0.500000
vt 0.875000 0.562500
vt 0.875000 0.625000
vt 0.812500 0.625000
vt 0.875000 0.687500
vt 0.812500 0.687500
vt 0.875000 0.750000
vt 0.812500 0.750000
vt 0.187500 0.687500
vt 0.245732 0.687500
vt 0.245360 0.750000
vt 0.187500 0.750000
vt 0.687500 0.687500
vt 0.625000 0.687500
vt 0.562500 0.879376
vt 0.625000 0.879669
vt 0.625000 0.937500
vt 0.562500 0.937500
vt 0.687500 0.750000
vt 0.625000 0.750000
vt 0.375000 0.750000
vt 0.437500 0.750000
vt 0.437500 0.812500
vt 0.375000 0.812500
vt 0.500000 0.750000
vt 0.500000 0.812500
vt 0.250000 0.562500
vt 0.312500 0.562500
vt 0.312500 0.625000
vt 0.250000 0.621181
vt 0.375000 0.879641
vt 0.437500 0.879369
vt 0.437500 0.937500
vt 0.375000 0.937500
vt 0.562500 0.750000
vt 0.562500 0.812500
vt 0.625000 0.812500
vt 0.745670 0.687500
vt 0.745332 0.750000
vt 0.500000 0.879160
vt 0.500000 0.937500
vt 0.754330 0.687500
vt 0.754669 0.750000
vt 0.625000 1.000000
vt 0.562500 1.000000
vt 0.500000 1.000000
vt 0.254268 0.687500
vt 0.312500 0.687500
vt 0.312500 0.750000
vt 0.254641 0.750000
vt 0.500000 0.870840
vt 0.437500 0.870631
vt 0.437500 1.000000
vt 0.375000 1.000000
vt 0.375000 0.000000
vt 0.437500 0.000000
vt 0.437500 0.062500
vt 0.375000 0.062500
vt 0.500000 0.000000
vt 0.500000 0.062500
vt 0.500000 0.125000
vt 0.437500 0.125000
vt 0.375000 0.125000
vt 0.562500 0.000000
vt 0.562500 0.062500
vt 0.625000 0.000000
vt 0.625000 0.062500
vt 0.625000 0.125000
vt 0.562500 0.125000
vt 0.562500 0.187500
vt 0.500000 0.187500
vt 0.625000 0.187500
vt 0.625000 0.250000
vt 0.562500 0.250000
vt 0.500000 0.250000
vt 0.437500 0.187500
vt 0.375000 0.187500
vt 0.437500 0.250000
vt 0.375000 0.250000
vt 0.125000 0.500000
vt 0.187500 0.500000
vt 0.187500 0.562500
vt 0.125000 0.562500
vt 0.250000 0.500000
vt 0.745670 0.687500
vt 0.187500 0.625000
vt 0.125000 0.625000
vt 0.312500 0.500000
vt 0.375000 0.500000
vt 0.375000 0.562500
vt 0.375000 0.625000
vt 0.253919 0.625000
vt 0.254268 0.687500
vt 0.246081 0.625000
vt 0.375000 0.687500
vt 0.562500 0.870625
vt 0.500000 0.870840
vt 0.125000 0.687500
vt 0.246081 0.625000
vt 0.437500 0.870631
vt 0.375000 0.870360
vt 0.125000 0.750000
vt 0.437500 0.500000
vt 0.437500 0.562500
vt 0.500000 0.500000
vt 0.500000 0.562500
vt 0.500000 0.625000
vt 0.437500 0.625000
vt 0.562500 0.500000
vt 0.562500 0.562500
vt 0.562500 0.625000
vt 0.562500 0.687500
vt 0.500000 0.687500
vt 0.437500 0.687500
vt 0.437500 0.312500
vt 0.375000 0.312500
vt 0.500000 0.312500
vt 0.500000 0.375000
vt 0.437500 0.375000
vt 0.375000 0.375000
vt 0.562500 0.312500
vt 0.625000 0.312500
vt 0.625000 0.375000
vt 0.562500 0.375000
vt 0.562500 0.437500
vt 0.500000 0.437500
vt 0.625000 0.437500
vt 0.437500 0.437500
vt 0.375000 0.437500
vt 0.748298 0.750002
vt 0.751542 0.688665
vt 0.751702 0.750002
vt 0.625000 0.876702
vt 0.562501 0.876586
vt 0.562501 0.873414
vt 0.625000 0.873298
vt 0.500000 0.876504
vt 0.500000 0.873497
vt 0.375002 0.873326
vt 0.437500 0.873420
vt 0.437500 0.876580
vt 0.375002 0.876674
vt 0.248326 0.750002
vt 0.248522 0.687504
vt 0.251478 0.687504
vt 0.251674 0.750002
vt 0.251265 0.625929
vt 0.625000 0.870332
vt 0.748458 0.688665
vt 0.248735 0.625929
s 1
usemtl peach_main
f 1/1/1 44/2/2 67/3/3 37/4/4
f 44/2/2 17/5/5 47/6/6 67/3/3
f 67/3/3 47/6/6 19/7/7 49/8/8
f 37/4/4 67/3/3 49/8/8 15/9/9
f 17/5/5 43/10/10 68/11/11 47/6/6
f 43/10/10 5/12/12 42/13/13 68/11/11
f 68/11/11 42/13/13 16/14/14 48/15/15
f 47/6/6 68/11/11 48/15/15 19/7/7
f 48/15/15 16/14/14 41/16/16 69/17/17
f 69/17/17 41/16/16 7/18/18 36/19/19
f 82/20/20 114/21/21 93/22/22 39/23/23
f 15/9/9 49/8/8 70/24/24 38/25/25
f 106/26/26 91/27/27 36/28/19 73/29/28
f 38/25/25 70/24/24 35/30/29 3/31/30
f 4/32/31 32/33/32 71/34/33 40/35/34
f 32/33/32 13/36/35 50/37/36 71/34/33
f 56/38/37 80/39/38 57/40/39 97/41/40
f 93/42/22 101/43/41 74/44/42 39/45/23
f 13/36/35 31/46/43 72/47/44 50/37/36
f 31/46/43 3/31/30 35/48/29 72/47/44
f 70/24/24 19/49/7 92/50/45 35/30/29
f 108/51/46 106/26/26 73/29/28 51/52/47
f 101/43/41 108/51/46 51/52/47 74/44/42
f 19/53/7 69/17/17 36/19/19 91/54/27
f 73/29/28 36/28/19 7/55/18 30/56/48
f 51/52/47 73/29/28 30/56/48 12/57/49
f 103/58/50 81/59/51 40/60/34 94/61/52
f 71/34/33 50/37/36 96/62/53 111/63/54
f 74/44/42 51/52/47 12/57/49 29/64/55
f 39/45/23 74/44/42 29/64/55 8/65/56
f 8/66/56 29/67/55 75/68/57 24/69/58
f 29/67/55 12/70/49 52/71/59 75/68/57
f 75/68/57 52/71/59 20/72/60 55/73/61
f 24/69/58 75/68/57 55/73/61 9/74/62
f 12/70/49 30/75/48 76/76/63 52/71/59
f 30/75/48 7/77/18 41/78/16 76/76/63
f 76/76/63 41/78/16 16/79/14 53/80/64
f 52/71/59 76/76/63 53/80/64 20/72/60
f 20/72/60 53/80/64 77/81/65 54/82/66
f 53/80/64 16/79/14 42/83/13 77/81/65
f 77/81/65 42/83/13 5/84/12 33/85/67
f 54/82/66 77/81/65 33/85/67 14/86/68
f 9/74/62 55/73/61 78/87/69 23/88/70
f 55/73/61 20/72/60 54/82/66 78/87/69
f 78/87/69 54/82/66 14/86/68 34/89/71
f 23/88/70 78/87/69 34/89/71 6/90/72
f 6/91/72 26/92/73 79/93/74 23/94/70
f 26/92/73 10/95/75 56/38/37 79/93/74
f 49/8/8 19/96/7 70/24/24
f 23/94/70 79/93/74 58/97/76 9/98/62
f 10/95/75 25/99/77 80/39/38 56/38/37
f 25/99/77 2/100/78 46/101/79 80/39/38
f 80/39/38 46/101/79 18/102/80 57/40/39
f 97/103/40 57/40/39 81/59/51 103/104/50
f 58/97/76 97/105/40 114/21/21 82/20/20
f 57/40/39 18/102/80 45/106/81 81/59/51
f 81/59/51 45/106/81 4/32/31 40/60/34
f 50/37/36 72/47/44 99/107/82 96/108/53
f 9/98/62 58/97/76 82/20/20 24/109/58
f 79/93/74 56/38/37 97/110/40 58/97/76
f 40/35/34 71/34/33 111/111/54 94/112/52
f 24/109/58 82/20/20 39/23/23 8/113/56
f 2/100/78 28/114/83 83/115/84 46/101/79
f 28/114/83 11/116/85 59/117/86 83/115/84
f 83/115/84 59/117/86 21/118/87 62/119/88
f 46/101/79 83/115/84 62/119/88 18/102/80
f 11/116/85 27/120/89 84/121/90 59/117/86
f 27/120/89 1/1/1 37/4/4 84/121/90
f 84/121/90 37/4/4 15/9/9 60/122/91
f 59/117/86 84/121/90 60/122/91 21/118/87
f 21/118/87 60/122/91 85/123/92 61/124/93
f 60/122/91 15/9/9 38/25/25 85/123/92
f 85/123/92 38/25/25 3/31/30 31/46/43
f 61/124/93 85/123/92 31/46/43 13/36/35
f 18/102/80 62/119/88 86/125/94 45/106/81
f 62/119/88 21/118/87 61/124/93 86/125/94
f 86/125/94 61/124/93 13/36/35 32/33/32
f 45/106/81 86/125/94 32/33/32 4/32/31
f 6/90/72 34/89/71 87/126/95 26/127/73
f 34/89/71 14/86/68 63/128/96 87/126/95
f 87/126/95 63/128/96 22/129/97 66/130/98
f 26/127/73 87/126/95 66/130/98 10/131/75
f 14/86/68 33/85/67 88/132/99 63/128/96
f 33/85/67 5/84/12 43/133/10 88/132/99
f 88/132/99 43/133/10 17/134/5 64/135/100
f 63/128/96 88/132/99 64/135/100 22/129/97
f 22/129/97 64/135/100 89/136/101 65/137/102
f 64/135/100 17/134/5 44/138/2 89/136/101
f 89/136/101 44/138/2 1/1/1 27/120/89
f 65/137/102 89/136/101 27/120/89 11/116/85
f 10/131/75 66/130/98 90/139/103 25/140/77
f 66/130/98 22/129/97 65/137/102 90/139/103
f 90/139/103 65/137/102 11/116/85 28/114/83
f 25/140/77 90/139/103 28/114/83 2/100/78
f 104/141/104 19/142/7 105/143/105
f 105/144/105 98/145/106 107/146/107 104/147/104
f 98/145/106 95/148/108 109/149/109 107/146/107
f 110/150/110 100/151/111 112/152/112 113/153/113
f 100/151/111 109/149/109 95/148/108 112/152/112
f 113/154/113 102/155/114 115/156/115 110/157/110
f 102/155/114 97/158/40 115/156/115
f 72/47/44 35/48/29 92/159/45 99/107/82
f 19/160/7 104/141/104 92/50/45
f 105/143/105 19/53/7 91/54/27
f 98/145/106 105/144/105 91/27/27 106/26/26
f 104/147/104 107/146/107 99/107/82 92/159/45
f 95/148/108 98/145/106 106/26/26 108/51/46
f 107/146/107 109/149/109 96/108/53 99/107/82
f 100/151/111 110/150/110 94/112/52 111/111/54
f 113/153/113 112/152/112 101/43/41 93/42/22
f 109/149/109 100/151/111 111/63/54 96/62/53
f 112/152/112 95/148/108 108/51/46 101/43/41
f 102/155/114 113/154/113 93/22/22 114/21/21
f 110/157/110 115/156/115 103/58/50 94/61/52
f 97/161/40 102/155/114 114/21/21
f 115/156/115 97/103/40 103/104/50
f 19/7/7 48/15/15 69/17/17
o Cube.002
v 0.175639 2.710665 0.673504
v 0.175639 5.010804 1.182103
v -0.347597 2.747791 0.505602
v -0.347597 5.047930 1.014200
v 0.347597 2.823632 0.162609
v 0.347597 5.123771 0.671207
v -0.175639 2.860758 -0.005294
v -0.175639 5.160897 0.503304
v 0.610982 5.726748 1.581066
v 0.213524 6.333565 1.581466
v 0.440004 6.482350 0.908585
v 0.837462 5.875533 0.908185
v 1.270946 6.016289 2.065547
v 1.143769 7.084827 2.259012
v 1.485125 7.309079 1.244831
v 1.612302 6.240541 1.051366
vn 0.3682 -0.7211 0.5869
vn 0.3351 -0.4032 0.8516
vn -0.9107 0.0564 0.4092
vn -0.7287 -0.6432 0.2349
vn -0.5033 0.3240 -0.8011
vn -0.3682 -0.4064 -0.8362
vn 0.8146 -0.0882 -0.5732
vn 0.7287 -0.4842 -0.4842
vn 0.1026 -0.7067 0.7000
vn -0.8206 0.3221 0.4722
vn 0.5785 -0.3940 -0.7142
vn -0.4283 0.5797 -0.6931
vn 0.4562 0.8360 -0.3049
vn 0.8201 -0.2889 -0.4939
vn 0.0836 0.5912 0.8022
vn 0.4111 -0.5576 0.7212
vt 0.375000 0.000000
vt 0.625000 0.000000
vt 0.625000 0.250000
vt 0.375000 0.250000
vt 0.625000 0.500000
vt 0.375000 0.500000
vt 0.625000 0.750000
vt 0.375000 0.750000
vt 0.625000 1.000000
vt 0.375000 1.000000
vt 0.125000 0.500000
vt 0.125000 0.750000
vt 0.875000 0.500000
vt 0.875000 0.750000
s 1
usemtl stem
f 116/162/116 117/163/117 119/164/118 118/165/119
f 118/165/119 119/164/118 123/166/120 122/167/121
f 122/167/121 123/166/120 121/168/122 120/169/123
f 120/169/123 121/168/122 117/170/117 116/171/116
f 118/172/119 122/167/121 120/169/123 116/173/116
f 119/164/118 117/163/117 124/163/124 125/164/125
f 127/168/126 126/166/127 130/166/128 131/168/129
f 117/170/117 121/168/122 127/168/126 124/170/124
f 123/166/120 119/164/118 125/164/125 126/166/127
f 121/168/122 123/166/120 126/166/127 127/168/126
f 130/166/128 129/174/130 128/175/131 131/168/129
f 125/164/125 124/163/124 128/163/131 129/164/130
f 124/170/124 127/168/126 131/168/129 128/170/131
f 126/166/127 125/164/125 129/164/130 130/166/128
o Plane.002
v 2.890676 4.849610 3.382740
v 3.828630 5.465794 0.596041
v 0.786731 4.554741 2.609389
v 1.724685 5.170926 -0.177310
v 4.104293 4.702797 2.868561
v 4.526621 4.980243 1.613808
v -0.228723 3.896813 1.181058
v 0.164140 4.154902 0.013848
v 3.374682 4.865306 1.929796
v 1.353622 4.582055 1.186911
v 4.822310 4.685240 2.377226
v -0.328381 3.778492 0.443098
vn -0.0608 0.9787 0.1960
vn -0.1549 0.9226 0.3534
vn -0.3556 0.8913 0.2812
vn -0.3278 0.9397 0.0974
vn -0.0381 0.9993 0.0066
vn 0.1234 0.9895 0.0754
vn 0.0709 0.9687 0.2381
vn -0.5054 0.8376 0.2075
vn -0.4570 0.8884 0.0426
vn -0.2375 0.9689 -0.0695
vn -0.3940 0.9108 -0.1236
vn 0.0163 0.9191 0.3937
vt 0.500000 0.000000
vt 1.000000 0.000000
vt 1.000000 1.000000
vt 0.500000 1.000000
vt 0.000000 0.000000
vt 0.000000 1.000000
s 1
usemtl peach_leaf
f 140/176/132 133/177/133 135/178/134 141/179/135
f 140/176/132 132/180/136 136/180/137 142/176/138
f 141/179/135 135/178/134 139/178/139 143/179/140
f 134/181/141 141/179/135 143/179/140 138/181/142
f 133/177/133 140/176/132 142/176/138 137/177/143
f 132/180/136 140/176/132 141/179/135 134/181/141
o Plane.003
v -3.365272 6.379031 -1.877678
v -4.450529 5.666076 1.346666
v -0.930906 5.692395 -1.210141
v -2.016163 4.979441 2.014204
v -4.769485 5.974164 -1.409831
v -5.258138 5.653146 0.041978
v 0.244023 4.305324 -0.032523
v -0.210537 4.006702 1.317995
v -3.925289 5.686706 -0.345620
v -1.586826 5.027121 0.295620
v -5.600266 5.716055 -0.902897
v 0.359333 3.821181 0.684009
vn 0.0608 0.9701 0.2350
vn 0.1549 0.9856 0.0685
vn 0.3556 0.9268 0.1208
vn 0.3278 0.8932 0.3078
vn 0.0381 0.9089 0.4153
vn -0.1234 0.9290 0.3489
vn -0.0709 0.9787 0.1925
vn 0.5054 0.8470 0.1650
vn 0.4570 0.8236 0.3359
vn 0.2375 0.8492 0.4716
vn 0.3940 0.7738 0.4961
vn -0.0163 0.9994 0.0305
vt 0.500000 0.000000
vt 1.000000 0.000000
vt 1.000000 1.000000
vt 0.500000 1.000000
vt 0.000000 0.000000
vt 0.000000 1.000000
s 1
usemtl peach_leaf
f 152/182/144 145/183/145 147/184/146 153/185/147
f 152/182/144 144/186/148 148/186/149 154/182/150
f 153/185/147 147/184/146 151/184/151 155/185/152
f 146/187/153 153/185/147 155/185/152 150/187/154
f 145/183/145 152/182/144 154/182/150 149/183/155
f 144/186/148 152/182/144 153/185/147 146/187/153
